<svg width="16" height="16" viewBox="0 0 16 16" fill="none" xmlns="http://www.w3.org/2000/svg">
<path d="M12.6666 4.66667H12V4C12 3.46957 11.7893 2.96086 11.4142 2.58579C11.0391 2.21071 10.5304 2 9.99998 2H3.33331C2.80288 2 2.29417 2.21071 1.9191 2.58579C1.54403 2.96086 1.33331 3.46957 1.33331 4V4V12C1.33331 12.5304 1.54403 13.0391 1.9191 13.4142C2.29417 13.7893 2.80288 14 3.33331 14H12.6666C13.1971 14 13.7058 13.7893 14.0809 13.4142C14.4559 13.0391 14.6666 12.5304 14.6666 12V6.66667C14.6666 6.13623 14.4559 5.62753 14.0809 5.25245C13.7058 4.87738 13.1971 4.66667 12.6666 4.66667ZM3.33331 3.33333H9.99998C10.1768 3.33333 10.3464 3.40357 10.4714 3.5286C10.5964 3.65362 10.6666 3.82319 10.6666 4V4.66667H3.33331C3.1565 4.66667 2.98693 4.59643 2.86191 4.4714C2.73688 4.34638 2.66665 4.17681 2.66665 4C2.66665 3.82319 2.73688 3.65362 2.86191 3.5286C2.98693 3.40357 3.1565 3.33333 3.33331 3.33333V3.33333ZM13.3333 10H12.6666C12.4898 10 12.3203 9.92976 12.1952 9.80474C12.0702 9.67971 12 9.51014 12 9.33333C12 9.15652 12.0702 8.98695 12.1952 8.86193C12.3203 8.7369 12.4898 8.66667 12.6666 8.66667H13.3333V10ZM13.3333 7.33333H12.6666C12.1362 7.33333 11.6275 7.54405 11.2524 7.91912C10.8774 8.29419 10.6666 8.8029 10.6666 9.33333C10.6666 9.86377 10.8774 10.3725 11.2524 10.7475C11.6275 11.1226 12.1362 11.3333 12.6666 11.3333H13.3333V12C13.3333 12.1768 13.2631 12.3464 13.1381 12.4714C13.013 12.5964 12.8435 12.6667 12.6666 12.6667H3.33331C3.1565 12.6667 2.98693 12.5964 2.86191 12.4714C2.73688 12.3464 2.66665 12.1768 2.66665 12V5.88667C2.88082 5.96201 3.10627 6.00034 3.33331 6H12.6666C12.8435 6 13.013 6.07024 13.1381 6.19526C13.2631 6.32029 13.3333 6.48986 13.3333 6.66667V7.33333Z" fill="white"/>
</svg>
