<svg width="16" height="16" viewBox="0 0 16 16" fill="none" xmlns="http://www.w3.org/2000/svg">
<path d="M9.81332 5.86L6.95332 8.72667L5.85332 7.62667C5.79355 7.55688 5.72001 7.5002 5.6373 7.46019C5.55459 7.42017 5.4645 7.39768 5.37268 7.39414C5.28087 7.39059 5.18932 7.40606 5.10377 7.43958C5.01822 7.47309 4.94052 7.52393 4.87555 7.5889C4.81058 7.65387 4.75974 7.73157 4.72622 7.81712C4.69271 7.90267 4.67724 7.99423 4.68078 8.08604C4.68433 8.17785 4.70682 8.26794 4.74683 8.35065C4.78685 8.43336 4.84353 8.5069 4.91332 8.56667L6.47998 10.14C6.54228 10.2018 6.61615 10.2507 6.69738 10.2838C6.7786 10.317 6.86558 10.3338 6.95332 10.3333C7.12821 10.3326 7.29581 10.2632 7.41998 10.14L10.7533 6.80667C10.8158 6.74469 10.8654 6.67096 10.8992 6.58972C10.9331 6.50848 10.9505 6.42134 10.9505 6.33334C10.9505 6.24533 10.9331 6.15819 10.8992 6.07695C10.8654 5.99571 10.8158 5.92198 10.7533 5.86C10.6284 5.73584 10.4594 5.66614 10.2833 5.66614C10.1072 5.66614 9.93822 5.73584 9.81332 5.86ZM7.99998 1.33334C6.68144 1.33334 5.39251 1.72433 4.29618 2.45687C3.19985 3.18941 2.34537 4.23061 1.84079 5.44878C1.3362 6.66695 1.20418 8.0074 1.46141 9.3006C1.71865 10.5938 2.35359 11.7817 3.28594 12.714C4.21829 13.6464 5.40617 14.2813 6.69938 14.5386C7.99259 14.7958 9.33303 14.6638 10.5512 14.1592C11.7694 13.6546 12.8106 12.8001 13.5431 11.7038C14.2757 10.6075 14.6666 9.31854 14.6666 8C14.6666 7.12452 14.4942 6.25762 14.1592 5.44878C13.8241 4.63994 13.3331 3.90501 12.714 3.28596C12.095 2.6669 11.36 2.17584 10.5512 1.84081C9.74237 1.50577 8.87546 1.33334 7.99998 1.33334V1.33334ZM7.99998 13.3333C6.94515 13.3333 5.914 13.0205 5.03694 12.4345C4.15988 11.8485 3.47629 11.0155 3.07263 10.041C2.66896 9.06644 2.56334 7.99409 2.76913 6.95952C2.97492 5.92496 3.48287 4.97465 4.22875 4.22877C4.97463 3.48289 5.92494 2.97494 6.9595 2.76915C7.99407 2.56336 9.06642 2.66898 10.041 3.07265C11.0155 3.47631 11.8485 4.1599 12.4345 5.03696C13.0205 5.91402 13.3333 6.94517 13.3333 8C13.3333 9.41449 12.7714 10.771 11.7712 11.7712C10.771 12.7714 9.41447 13.3333 7.99998 13.3333V13.3333Z" fill="white"/>
</svg>
