<svg width="16" height="16" viewBox="0 0 16 16" fill="none" xmlns="http://www.w3.org/2000/svg">
<path d="M13.875 2.34805C13.3047 2.12361 12.5584 2 11.7734 2C10.9885 2 10.2422 2.12361 9.67192 2.34805C9.02902 2.60113 8.74533 2.92663 8.62634 3.20392C8.57625 3.28364 8.54688 3.37676 8.54688 3.47667V7.74271C8.36786 7.72922 8.1851 7.72211 8 7.72211C7.8149 7.72211 7.63214 7.72922 7.45312 7.74271V5.58621C7.45312 5.48629 7.42375 5.39318 7.37366 5.31345C7.25467 5.03616 6.97098 4.71067 6.32808 4.45759C5.75781 4.23314 5.01152 4.10953 4.22656 4.10953C3.4416 4.10953 2.69531 4.23314 2.12505 4.45759C1.14622 4.84293 1 5.39616 1 5.69168V11.9148C1 12.2103 1.14612 12.7636 2.12505 13.1489C2.69531 13.3734 3.4416 13.497 4.22656 13.497C4.41241 13.497 4.59549 13.4898 4.77536 13.4764C4.79501 13.782 4.98097 14.2908 5.89848 14.6519C6.46875 14.8764 7.21504 15 8 15C8.78496 15 9.53125 14.8764 10.1015 14.6519C11.0803 14.2666 11.2266 13.7134 11.2266 13.4178V13.3974C11.4058 13.4107 11.5883 13.4178 11.7734 13.4178C12.5584 13.4178 13.3047 13.2942 13.875 13.0698C14.8539 12.6845 15 12.1312 15 11.8357V3.58215C15 3.28663 14.8538 2.73339 13.875 2.34805V2.34805ZM4.22656 5.1643C5.53415 5.1643 6.26933 5.54634 6.35938 5.70847V7.9205C6.19606 7.96376 6.04172 8.01382 5.89848 8.07016C5.56598 8.20108 5.32971 8.35136 5.16245 8.50433C5.05467 8.36012 4.87459 8.27154 4.67741 8.28596C4.53001 8.29677 4.37834 8.30223 4.22656 8.30223C2.91898 8.30223 2.18379 7.92019 2.09375 7.75806V6.91301C2.10432 6.91723 2.11436 6.92156 2.12505 6.92578C2.69531 7.15023 3.4416 7.27383 4.22656 7.27383C4.40579 7.27383 4.58524 7.26734 4.76009 7.25457C5.06129 7.23253 5.28688 6.97924 5.26402 6.68887C5.24127 6.3984 4.97894 6.18085 4.67741 6.20279C4.53001 6.21361 4.37834 6.21907 4.22656 6.21907C2.96234 6.21907 2.23314 5.86185 2.10475 5.69168C2.23314 5.52152 2.96234 5.1643 4.22656 5.1643ZM2.09375 8.99617C2.10432 9.0004 2.11436 9.00472 2.12505 9.00895C2.69531 9.23339 3.4416 9.357 4.22656 9.357C4.40579 9.357 4.58524 9.35051 4.76009 9.33774C4.76479 9.33743 4.76938 9.3365 4.77408 9.33598C4.77429 9.34217 4.77461 9.34845 4.77493 9.35463C4.7744 9.36421 4.77344 9.37368 4.77344 9.38337V10.3875C4.5957 10.4034 4.41306 10.4118 4.22656 10.4118C2.91908 10.4118 2.18379 10.0297 2.09375 9.86759V8.99617ZM2.09375 11.8981V11.1057C2.10432 11.1099 2.11436 11.1143 2.12505 11.1185C2.69531 11.3429 3.4416 11.4665 4.22656 11.4665C4.41167 11.4665 4.59421 11.4594 4.77344 11.446V12.4179C4.5957 12.4338 4.41306 12.4422 4.22656 12.4422C2.9193 12.4422 2.18411 12.0602 2.09375 11.8981V11.8981ZM10.1328 13.4012C10.0424 13.5633 9.30727 13.9452 8 13.9452C6.69273 13.9452 5.95755 13.5633 5.86719 13.4012V12.5559C5.87776 12.5602 5.8878 12.5646 5.89848 12.5688C6.46875 12.7932 7.21504 12.9168 8 12.9168C8.17923 12.9168 8.35867 12.9103 8.53352 12.8976C8.83473 12.8755 9.06032 12.6222 9.03746 12.3319C9.01471 12.0414 8.75195 11.8236 8.45085 11.8458C8.30345 11.8566 8.15178 11.8621 8 11.8621C6.69241 11.8621 5.95723 11.48 5.86719 11.3179V10.5256C5.87776 10.5298 5.8878 10.5341 5.89848 10.5384C6.46875 10.7628 7.21504 10.8864 8 10.8864C8.17923 10.8864 8.35867 10.8799 8.53352 10.8671C8.83473 10.8451 9.06032 10.5918 9.03746 10.3014C9.01471 10.011 8.75195 9.79333 8.45085 9.81537C8.30345 9.82618 8.15178 9.83164 8 9.83164C6.73567 9.83164 6.00658 9.47442 5.8783 9.30426C6.00647 9.1341 6.73567 8.77688 8 8.77688C9.30865 8.77688 10.0442 9.15964 10.1331 9.32146C10.1333 9.32877 10.1344 9.33588 10.1349 9.34309C10.1339 9.35638 10.1328 9.36977 10.1328 9.38337V13.4012ZM11.7734 12.3631C11.5869 12.3631 11.4043 12.3547 11.2266 12.3388V11.3672C11.4059 11.3806 11.5885 11.3874 11.7734 11.3874C11.9527 11.3874 12.1321 11.3809 12.307 11.3682C12.6082 11.3461 12.8338 11.0928 12.8109 10.8025C12.7881 10.512 12.5253 10.2941 12.2243 10.3164C12.0769 10.3272 11.9252 10.3327 11.7734 10.3327C11.5874 10.3327 11.4045 10.3244 11.2266 10.3085V9.38337C11.2266 9.36998 11.2255 9.35689 11.2245 9.34381C11.2246 9.34134 11.2247 9.33877 11.2249 9.33629C11.4044 9.34989 11.5878 9.357 11.7734 9.357C11.9526 9.357 12.1321 9.35051 12.307 9.33774C12.6081 9.31569 12.8338 9.0624 12.8109 8.77203C12.788 8.48156 12.5253 8.26381 12.2243 8.28596C12.0768 8.29677 11.9251 8.30223 11.7734 8.30223C10.4659 8.30223 9.73056 7.92019 9.64062 7.75806V6.88664C9.65109 6.89086 9.66124 6.89519 9.67192 6.89941C10.2422 7.12386 10.9885 7.24746 11.7734 7.24746C11.9527 7.24746 12.1321 7.24098 12.307 7.2282C12.6082 7.20616 12.8338 6.95287 12.8109 6.6625C12.7881 6.37203 12.5253 6.15438 12.2243 6.17642C12.0769 6.18724 11.9252 6.1927 11.7734 6.1927C10.4659 6.1927 9.73067 5.81065 9.64062 5.64852V4.80348C9.6512 4.8077 9.66124 4.81202 9.67192 4.81625C10.2422 5.04069 10.9885 5.1643 11.7734 5.1643C11.9527 5.1643 12.1321 5.15781 12.307 5.14504C12.6082 5.123 12.8338 4.86971 12.8109 4.57934C12.7881 4.28886 12.5257 4.07142 12.2243 4.09326C12.0769 4.10407 11.9251 4.10953 11.7734 4.10953C10.5092 4.10953 9.78001 3.75231 9.65163 3.58215C9.78001 3.41199 10.5092 3.05477 11.7734 3.05477C13.081 3.05477 13.8162 3.43681 13.9062 3.59894V11.819C13.8159 11.9811 13.0807 12.3631 11.7734 12.3631V12.3631Z" fill="white"/>
</svg>
