<svg width="16" height="16" viewBox="0 0 16 16" fill="none" xmlns="http://www.w3.org/2000/svg">
<path d="M7.99998 6.66667C7.82317 6.66667 7.6536 6.73691 7.52858 6.86193C7.40355 6.98695 7.33332 7.15652 7.33332 7.33333V8.66667C7.33332 8.84348 7.40355 9.01305 7.52858 9.13807C7.6536 9.2631 7.82317 9.33333 7.99998 9.33333C8.17679 9.33333 8.34636 9.2631 8.47139 9.13807C8.59641 9.01305 8.66665 8.84348 8.66665 8.66667V7.33333C8.66665 7.15652 8.59641 6.98695 8.47139 6.86193C8.34636 6.73691 8.17679 6.66667 7.99998 6.66667ZM13.64 6.45334C13.5516 5.47641 13.2111 4.53915 12.6519 3.73327C12.0926 2.92739 11.3338 2.28048 10.4495 1.85583C9.56529 1.43118 8.58596 1.24334 7.60735 1.31068C6.62875 1.37802 5.68438 1.69824 4.86665 2.24C4.16611 2.70843 3.57802 3.3262 3.14461 4.04893C2.7112 4.77166 2.44324 5.5814 2.35998 6.42C2.2783 7.25311 2.3831 8.09395 2.66676 8.88152C2.95043 9.66909 3.40585 10.3836 3.99998 10.9733L7.53332 14.5133C7.59529 14.5758 7.66902 14.6254 7.75026 14.6593C7.8315 14.6931 7.91864 14.7105 8.00665 14.7105C8.09466 14.7105 8.18179 14.6931 8.26303 14.6593C8.34427 14.6254 8.41801 14.5758 8.47998 14.5133L12 10.9733C12.5941 10.3836 13.0495 9.66909 13.3332 8.88152C13.6169 8.09395 13.7217 7.25311 13.64 6.42V6.45334ZM11.0666 10.0333L7.99998 13.1L4.93332 10.0333C4.48137 9.58137 4.13518 9.03489 3.91963 8.43317C3.70407 7.83146 3.6245 7.18946 3.68665 6.55334C3.74919 5.9074 3.95449 5.28344 4.2877 4.72656C4.6209 4.16968 5.07369 3.69381 5.61332 3.33333C6.32061 2.86349 7.15085 2.61286 7.99998 2.61286C8.84911 2.61286 9.67935 2.86349 10.3866 3.33333C10.9246 3.69241 11.3764 4.16619 11.7096 4.72063C12.0427 5.27507 12.2489 5.8964 12.3133 6.54C12.3775 7.17829 12.2989 7.82285 12.0833 8.42703C11.8677 9.03121 11.5204 9.57989 11.0666 10.0333V10.0333ZM8.61332 5.04667C8.6 5.00571 8.5797 4.96737 8.55332 4.93334L8.47332 4.83334C8.39373 4.75776 8.29671 4.70301 8.19088 4.67394C8.08505 4.64486 7.97368 4.64237 7.86665 4.66667H7.74665L7.62665 4.72667L7.52665 4.81333L7.44665 4.91333C7.42026 4.94737 7.39996 4.98571 7.38665 5.02667C7.36635 5.06637 7.35283 5.10918 7.34665 5.15334C7.33559 5.21266 7.33112 5.27303 7.33332 5.33334C7.331 5.42294 7.34924 5.51188 7.38665 5.59334C7.42061 5.67202 7.46798 5.7442 7.52665 5.80667C7.5901 5.86896 7.66474 5.91872 7.74665 5.95334C7.90985 6.01534 8.09012 6.01534 8.25332 5.95334C8.33434 5.9171 8.4087 5.86752 8.47332 5.80667C8.53198 5.7442 8.57935 5.67202 8.61332 5.59334C8.64834 5.51112 8.66648 5.4227 8.66665 5.33334C8.66991 5.29118 8.66991 5.24883 8.66665 5.20667C8.66044 5.15015 8.64226 5.09561 8.61332 5.04667V5.04667Z" fill="white"/>
</svg>
